<?xml version="1.0" encoding="UTF-8" standalone="no" ?>
<!DOCTYPE svg PUBLIC "-//W3C//DTD SVG 1.1//EN" "http://www.w3.org/Graphics/SVG/1.1/DTD/svg11.dtd">
<svg xmlns="http://www.w3.org/2000/svg" xmlns:xlink="http://www.w3.org/1999/xlink" version="1.1" width="150" height="150" viewBox="0 0 640 640" xml:space="preserve">
<desc>Created with Fabric.js 5.3.0</desc>
<defs>
</defs>
<g transform="matrix(1.4200641303 0 0 1.4200641303 358.7768969422 244.4649616271)" id="8qQc2vgzDLXJLvrGmo5VG"  >
<path style="stroke: rgb(0,0,0); stroke-width: 1; stroke-dasharray: none; stroke-linecap: butt; stroke-dashoffset: 0; stroke-linejoin: miter; stroke-miterlimit: 4; fill: rgb(255,128,0); fill-rule: nonzero; opacity: 1;"  transform=" translate(0.0000018222, -0.0000018794)" d="M 138.97767 25.37947 C 156.01969 15.144330000000002 165.44468999999998 -4.15945 163.03434 -23.892129999999998 C 160.62399 -43.62481 146.82950999999997 -60.092330000000004 127.82487999999998 -65.92436 L 123.03202999999998 -67.39515999999999 L 105.27356999999998 -58.08312999999999 L 105.27356999999998 -58.08312999999999 C 28.834409999999977 -18.00059999999999 -58.98666000000003 -5.178349999999988 -143.69504000000003 -21.732649999999992 L -143.69504000000003 -21.732649999999992 L -143.69504000000003 -21.732649999999992 L -143.69504000000003 -21.732649999999992 C -154.94960000000003 -13.547289999999993 -162.08459000000005 -0.8690899999999928 -163.24128000000005 12.999120000000005 C -164.39796000000004 26.867330000000003 -159.46179000000004 40.552330000000005 -149.71871000000004 50.489000000000004 L -148.04386000000005 52.19713 L -148.04386000000005 52.19713 L -148.04386000000005 52.19713 C -52.89072000000006 79.26525000000001 48.930789999999945 69.94987 137.59262999999993 26.06501 z" stroke-linecap="round" />
</g>
<g transform="matrix(1.4200641303 0 0 1.4200641303 281.2230979744 307.8171700077)" id="9g9IfI5LRG03QXwz-Z028"  >
<path style="stroke: rgb(0,0,0); stroke-width: 1; stroke-dasharray: none; stroke-linecap: butt; stroke-dashoffset: 0; stroke-linejoin: miter; stroke-miterlimit: 4; fill: rgb(255,128,0); fill-rule: nonzero; opacity: 1;"  transform=" translate(0, 0)" d="M 138.97767 25.37947 C 156.01969 15.144330000000002 165.44468999999998 -4.15945 163.03434 -23.892129999999998 C 160.62399 -43.62481 146.82950999999997 -60.092330000000004 127.82487999999998 -65.92436 L 123.03202999999998 -67.39515999999999 L 105.27356999999998 -58.08312999999999 L 105.27356999999998 -58.08312999999999 C 28.834409999999977 -18.00059999999999 -58.98666000000003 -5.178349999999988 -143.69504000000003 -21.732649999999992 L -143.69504000000003 -21.732649999999992 L -143.69504000000003 -21.732649999999992 L -143.69504000000003 -21.732649999999992 C -154.94960000000003 -13.547289999999993 -162.08459000000005 -0.8690899999999928 -163.24128000000005 12.999120000000005 C -164.39796000000004 26.867330000000003 -159.46179000000004 40.552330000000005 -149.71871000000004 50.489000000000004 L -148.04386000000005 52.19713 L -148.04386000000005 52.19713 L -148.04386000000005 52.19713 C -52.89072000000006 79.26525000000001 48.930789999999945 69.94987 137.59262999999993 26.06501 z" stroke-linecap="round" />
</g>
<g transform="matrix(1.4200641303 0 0 1.4200641303 350.6568465588 395.5350383729)" id="2gKF8tVIw6GyjHJwmxigT"  >
<path style="stroke: rgb(0,0,0); stroke-width: 1; stroke-dasharray: none; stroke-linecap: butt; stroke-dashoffset: 0; stroke-linejoin: miter; stroke-miterlimit: 4; fill: rgb(255,128,0); fill-rule: nonzero; opacity: 1;"  transform=" translate(0.0000018222, -0.0000018794)" d="M 138.97767 25.37947 C 156.01969 15.144330000000002 165.44468999999998 -4.15945 163.03434 -23.892129999999998 C 160.62399 -43.62481 146.82950999999997 -60.092330000000004 127.82487999999998 -65.92436 L 123.03202999999998 -67.39515999999999 L 105.27356999999998 -58.08312999999999 L 105.27356999999998 -58.08312999999999 C 28.834409999999977 -18.00059999999999 -58.98666000000003 -5.178349999999988 -143.69504000000003 -21.732649999999992 L -143.69504000000003 -21.732649999999992 L -143.69504000000003 -21.732649999999992 L -143.69504000000003 -21.732649999999992 C -154.94960000000003 -13.547289999999993 -162.08459000000005 -0.8690899999999928 -163.24128000000005 12.999120000000005 C -164.39796000000004 26.867330000000003 -159.46179000000004 40.552330000000005 -149.71871000000004 50.489000000000004 L -148.04386000000005 52.19713 L -148.04386000000005 52.19713 L -148.04386000000005 52.19713 C -52.89072000000006 79.26525000000001 48.930789999999945 69.94987 137.59262999999993 26.06501 z" stroke-linecap="round" />
</g>
</svg>